<svg width="151" height="150" viewBox="0 0 151 150" fill="none" xmlns="http://www.w3.org/2000/svg">
<path d="M17.167 85.5235H37.7126C38.6865 85.5235 39.4842 84.7269 39.4842 83.7519C39.4842 82.778 38.6876 81.9803 37.7126 81.9803H17.167C16.1931 81.9803 15.3954 82.7769 15.3954 83.7519C15.3954 84.7258 16.192 85.5235 17.167 85.5235Z" fill="black"/>
<mask id="mask0_9001_371" style="mask-type:luminance" maskUnits="userSpaceOnUse" x="1" y="81" width="12" height="5">
<path d="M1.69824 81.7383H12.8035V85.5469H1.69824V81.7383Z" fill="white"/>
</mask>
<g mask="url(#mask0_9001_371)">
<path d="M10.8359 81.9814H3.47041C2.49652 81.9814 1.69885 82.778 1.69885 83.753C1.69885 84.7269 2.49538 85.5246 3.47041 85.5246H10.821C11.7949 85.5246 12.5925 84.728 12.5925 83.753C12.6063 82.7642 11.8098 81.9814 10.8359 81.9814Z" fill="black"/>
</g>
<path d="M34.9238 64.7255C34.9238 63.7516 34.1273 62.954 33.1523 62.954H12.6067C11.6328 62.954 10.8351 63.7505 10.8351 64.7255C10.8351 65.6994 11.6316 66.4971 12.6067 66.4971H33.1523C34.1273 66.4971 34.9238 65.7143 34.9238 64.7255Z" fill="black"/>
<path d="M46.8359 66.4981C47.8098 66.4981 48.6075 65.7015 48.6075 64.7265C48.6075 63.7526 47.811 62.955 46.8359 62.955H39.4854C38.5115 62.955 37.7138 63.7515 37.7138 64.7265C37.7138 65.7004 38.5103 66.4981 39.4854 66.4981H46.8359Z" fill="black"/>
<path d="M24.2656 74.2324C24.2656 75.2063 25.0622 76.0039 26.0372 76.0039H59.0108C59.9847 76.0039 60.7824 75.2074 60.7824 74.2324C60.7824 73.2585 59.9858 72.4608 59.0108 72.4608H26.0372C25.0633 72.4608 24.2656 73.2585 24.2656 74.2324Z" fill="black"/>
<mask id="mask1_9001_371" style="mask-type:luminance" maskUnits="userSpaceOnUse" x="4" y="16" width="146" height="118">
<path d="M4.01562 16.1133H149.299V133.887H4.01562V16.1133Z" fill="white"/>
</mask>
<g mask="url(#mask1_9001_371)">
<path d="M144.222 17.8623C144.177 16.9182 143.395 16.1652 142.45 16.1652H53.8329C52.8739 16.1652 52.0912 16.9182 52.0614 17.8772L50.7179 53.4495H6.01084C5.03696 53.4495 4.23929 54.246 4.23929 55.221C4.23929 56.1949 5.03581 56.9926 6.01084 56.9926H69.1544C70.1283 56.9926 70.9259 56.1961 70.9259 55.221C70.9259 54.2471 70.1294 53.4495 69.1544 53.4495H54.261L55.5302 19.7229H140.74L145.655 130.289L120.209 130.29C120.357 129.833 120.43 129.331 120.43 128.829C120.43 123.619 116.608 119.309 111.633 118.497C109.375 97.1392 91.5902 80.4904 70.1285 79.6203V75.3836C70.1285 74.4098 69.332 73.6121 68.3569 73.6121C67.3831 73.6121 66.5854 74.4086 66.5854 75.3836V79.6203C55.7959 80.0631 45.9358 84.4759 38.5119 91.4878L17.4205 91.4867C16.4467 91.4867 15.649 92.2832 15.649 93.2582C15.649 94.2321 16.4455 95.0298 17.4205 95.0298H35.1326C29.6417 101.494 25.9954 109.583 25.0664 118.498C20.0927 119.309 16.2695 123.619 16.2695 128.83C16.2695 131.59 18.5125 133.833 21.2728 133.833H147.531C148.018 133.833 148.475 133.641 148.815 133.287C149.155 132.933 149.331 132.461 149.302 131.988L144.222 17.8623ZM40.2969 94.6729C40.4148 94.5848 40.5326 94.4806 40.6219 94.3479C47.8547 87.3808 57.6554 83.1154 68.3555 83.1154C88.6207 83.1154 105.697 98.4368 108.059 118.348H28.6494C29.7424 109.109 34.0087 100.873 40.2961 94.6733L40.2969 94.6729ZM106.555 130.289H21.2715C20.4601 130.289 19.8101 129.64 19.8101 128.828C19.8101 125.005 22.9091 121.905 26.7326 121.905H109.95C113.773 121.905 116.873 125.004 116.873 128.828C116.873 129.639 116.224 130.289 115.412 130.289H106.555Z" fill="black"/>
</g>
<path d="M77.7119 29.1241C76.738 29.1241 75.9404 29.9206 75.9404 30.8956V44.7703C75.9404 57.0659 85.9482 67.0726 98.2426 67.0726C110.538 67.0726 120.545 57.0647 120.545 44.7703V30.8956C120.545 29.9217 119.748 29.1241 118.773 29.1241C117.799 29.1241 117.002 29.9206 117.002 30.8956V44.7703C117.002 55.1168 108.588 63.5306 98.2415 63.5306C87.8971 63.5294 79.4836 55.1168 79.4836 44.7691V30.8944C79.4836 29.9217 78.6858 29.1241 77.7119 29.1241Z" fill="black"/>
<path d="M101.152 113.022C94.8342 92.4897 74.3331 87.6636 73.4621 87.4714C72.5031 87.2506 71.5578 87.8548 71.3369 88.815C71.1161 89.774 71.7203 90.7193 72.6805 90.9401C72.8727 90.9848 92.0463 95.5602 97.758 114.083C97.9938 114.851 98.6884 115.338 99.4552 115.338C99.6326 115.338 99.8099 115.308 99.9713 115.264C100.901 114.954 101.433 113.966 101.152 113.022Z" fill="black"/>
</svg>
