<svg width="32" height="32" viewBox="0 0 32 32" fill="none" xmlns="http://www.w3.org/2000/svg">
<path fill-rule="evenodd" clip-rule="evenodd" d="M16 2.5C15.1716 2.5 14.5 3.17157 14.5 4V6.50871C14.0397 6.59162 13.5879 6.71275 13.1508 6.87116C12.246 7.19912 11.4198 7.68122 10.721 8.29268C10.0221 8.90425 9.46351 9.63394 9.08092 10.4421C8.84425 10.9421 8.67814 11.4653 8.58583 12H8C7.44772 12 7 12.4477 7 13V14C7 14.5523 7.44772 15 8 15H8.49998C8.49999 15.0103 8.50032 15.0206 8.50097 15.031L9.37594 29.0932C9.42514 29.8839 10.0808 30.5 10.873 30.5H19C19.2761 30.5 19.5 30.2761 19.5 30C19.5 29.7239 19.2761 29.5 19 29.5H10.873C10.609 29.5 10.3904 29.2946 10.374 29.0311L9.68763 18H20.5C20.7761 18 21 17.7761 21 17.5C21 17.2239 20.7761 17 20.5 17H9.62541L9.50097 15H22.4989L21.5011 29.9667C21.4827 30.2423 21.6912 30.4805 21.9667 30.4989C22.2423 30.5173 22.4805 30.3088 22.4989 30.0333L23.4989 15.0333C23.4996 15.0221 23.5 15.011 23.5 15H24C24.5523 15 25 14.5523 25 14V13C25 12.4477 24.5523 12 24 12H23.4142C23.3219 11.4653 23.1558 10.9421 22.9191 10.4421C22.5365 9.63394 21.9779 8.90426 21.279 8.29268C20.5802 7.68122 19.754 7.19912 18.8492 6.87116C18.4121 6.71276 17.9603 6.59162 17.5 6.50871V4C17.5 3.17157 16.8284 2.5 16 2.5ZM16.5 6.38972V4C16.5 3.72386 16.2761 3.5 16 3.5C15.7239 3.5 15.5 3.72386 15.5 4V6.38972C15.6662 6.37992 15.833 6.375 16 6.375C16.167 6.375 16.3338 6.37992 16.5 6.38972ZM15.5 7.39169C15.6661 7.38059 15.8329 7.375 16 7.375C16.1672 7.375 16.3339 7.38059 16.5 7.39169V12H15.5V7.39169ZM14.5 7.52704C14.1562 7.59771 13.8189 7.6927 13.4916 7.81131C12.6979 8.09897 11.9807 8.51921 11.3795 9.04526C10.7784 9.5712 10.3057 10.1919 9.98476 10.87C9.81175 11.2355 9.68437 11.6143 9.60371 12L14.5 12V7.52704ZM17.5 12V7.52704C17.8438 7.59771 18.1811 7.6927 18.5084 7.81132C19.3021 8.09897 20.0193 8.51921 20.6205 9.04526C21.2216 9.5712 21.6943 10.1919 22.0152 10.87C22.1883 11.2355 22.3156 11.6143 22.3963 12L17.5 12ZM8 13H24V14H8V13Z" fill="black"/>
<path fill-rule="evenodd" clip-rule="evenodd" d="M17.5 20.5C17.5 21.3284 16.8284 22 16 22C15.1716 22 14.5 21.3284 14.5 20.5C14.5 19.6716 15.1716 19 16 19C16.8284 19 17.5 19.6716 17.5 20.5ZM16.5 20.5C16.5 20.7761 16.2761 21 16 21C15.7239 21 15.5 20.7761 15.5 20.5C15.5 20.2239 15.7239 20 16 20C16.2761 20 16.5 20.2239 16.5 20.5Z" fill="black"/>
<path fill-rule="evenodd" clip-rule="evenodd" d="M15.68 24.1364C15.68 24.9648 15.0084 25.6364 14.18 25.6364C13.3516 25.6364 12.68 24.9648 12.68 24.1364C12.68 23.3079 13.3516 22.6364 14.18 22.6364C15.0084 22.6364 15.68 23.3079 15.68 24.1364ZM14.68 24.1364C14.68 24.4125 14.4561 24.6364 14.18 24.6364C13.9039 24.6364 13.68 24.4125 13.68 24.1364C13.68 23.8602 13.9039 23.6364 14.18 23.6364C14.4561 23.6364 14.68 23.8602 14.68 24.1364Z" fill="black"/>
<path fill-rule="evenodd" clip-rule="evenodd" d="M13.86 27.5C13.86 28.3284 13.1884 29 12.36 29C11.5316 29 10.86 28.3284 10.86 27.5C10.86 26.6716 11.5316 26 12.36 26C13.1884 26 13.86 26.6716 13.86 27.5ZM12.86 27.5C12.86 27.7761 12.6361 28 12.36 28C12.0839 28 11.86 27.7761 11.86 27.5C11.86 27.2239 12.0839 27 12.36 27C12.6361 27 12.86 27.2239 12.86 27.5Z" fill="black"/>
<path fill-rule="evenodd" clip-rule="evenodd" d="M17.4964 27.5C17.4964 28.3284 16.8248 29 15.9964 29C15.1679 29 14.4964 28.3284 14.4964 27.5C14.4964 26.6716 15.1679 26 15.9964 26C16.8248 26 17.4964 26.6716 17.4964 27.5ZM16.4964 27.5C16.4964 27.7761 16.2725 28 15.9964 28C15.7202 28 15.4964 27.7761 15.4964 27.5C15.4964 27.2239 15.7202 27 15.9964 27C16.2725 27 16.4964 27.2239 16.4964 27.5Z" fill="black"/>
<path fill-rule="evenodd" clip-rule="evenodd" d="M19.6327 29C20.4612 29 21.1327 28.3284 21.1327 27.5C21.1327 26.6716 20.4612 26 19.6327 26C18.8043 26 18.1327 26.6716 18.1327 27.5C18.1327 28.3284 18.8043 29 19.6327 29ZM19.6327 28C19.9089 28 20.1327 27.7761 20.1327 27.5C20.1327 27.2239 19.9089 27 19.6327 27C19.3566 27 19.1327 27.2239 19.1327 27.5C19.1327 27.7761 19.3566 28 19.6327 28Z" fill="black"/>
<path fill-rule="evenodd" clip-rule="evenodd" d="M17.8164 25.6364C18.6448 25.6364 19.3164 24.9648 19.3164 24.1364C19.3164 23.3079 18.6448 22.6364 17.8164 22.6364C16.9879 22.6364 16.3164 23.3079 16.3164 24.1364C16.3164 24.9648 16.9879 25.6364 17.8164 25.6364ZM17.8164 24.6364C18.0925 24.6364 18.3164 24.4125 18.3164 24.1364C18.3164 23.8602 18.0925 23.6364 17.8164 23.6364C17.5402 23.6364 17.3164 23.8602 17.3164 24.1364C17.3164 24.4125 17.5402 24.6364 17.8164 24.6364Z" fill="black"/>
</svg>
