<svg width="32" height="32" viewBox="0 0 32 32" fill="none" xmlns="http://www.w3.org/2000/svg">
<path fill-rule="evenodd" clip-rule="evenodd" d="M12.5 6C12.5 5.17157 13.1716 4.5 14 4.5H15C15.3842 4.5 15.7346 4.64443 16 4.88195C16.2654 4.64443 16.6158 4.5 17 4.5H18C18.8284 4.5 19.5 5.17157 19.5 6V6.58535C19.6564 6.53008 19.8247 6.5 20 6.5H21C21.8284 6.5 22.5 7.17157 22.5 8V11.5H23.9019C24.7856 11.5 25.4778 12.2601 25.3953 13.14L23.9978 28.0467C23.9721 28.3216 23.7283 28.5236 23.4533 28.4978C23.1784 28.472 22.9764 28.2283 23.0022 27.9533L24.3997 13.0467C24.4272 12.7534 24.1965 12.5 23.9019 12.5H22.4643C22.3874 12.8909 22.1895 13.2547 21.9047 13.5777C21.5359 13.9958 21.0179 14.3513 20.4037 14.6377C19.787 14.9254 19.0676 15.1461 18.2902 15.2923C17.5119 15.4386 16.6837 15.5085 15.853 15.4992C15.0224 15.4898 14.2013 15.4013 13.4368 15.2374C12.6733 15.0736 11.9736 14.8361 11.382 14.533C10.7931 14.2311 10.3037 13.8601 9.97022 13.4258C9.75133 13.1408 9.60057 12.8286 9.53575 12.5H8.09815C7.80358 12.5 7.57284 12.7534 7.60034 13.0467L8.91284 27.0467C8.93692 27.3036 9.15259 27.5 9.41065 27.5H21C21.2762 27.5 21.5 27.7239 21.5 28C21.5 28.2761 21.2762 28.5 21 28.5H9.41065C8.63647 28.5 7.98946 27.9108 7.9172 27.14L6.6047 13.14C6.52221 12.2601 7.21442 11.5 8.09815 11.5H9.50002V8C9.50002 7.17157 10.1716 6.5 11 6.5H12C12.1753 6.5 12.3436 6.53008 12.5 6.58535V6ZM10.5 11.9179C10.5071 11.9603 10.5087 12.0043 10.5043 12.0492C10.4813 12.282 10.5506 12.5397 10.7633 12.8168C10.9806 13.0997 11.3366 13.386 11.8381 13.643C12.0406 13.7468 12.2619 13.8433 12.5 13.9313V8C12.5 7.72386 12.2762 7.5 12 7.5H11C10.7239 7.5 10.5 7.72386 10.5 8V11.9179ZM13.4513 14.2156C13.5156 14.2308 13.5807 14.2455 13.6465 14.2596C14.2311 14.385 14.858 14.4629 15.5 14.4896V6C15.5 5.72386 15.2762 5.5 15 5.5H14C13.7239 5.5 13.5 5.72386 13.5 6V14C13.5 14.0772 13.4825 14.1503 13.4513 14.2156ZM16.5 14.4896C17.0508 14.4667 17.5918 14.406 18.1054 14.3095C18.2397 14.2843 18.3713 14.2567 18.5 14.227V6C18.5 5.72386 18.2762 5.5 18 5.5H17C16.7239 5.5 16.5 5.72386 16.5 6V14.4896ZM19.5 13.9313C19.6688 13.8689 19.8294 13.8022 19.981 13.7315C20.5112 13.4842 20.9026 13.202 21.1547 12.9162C21.4029 12.6348 21.4993 12.3708 21.5 12.1375V8C21.5 7.72386 21.2762 7.5 21 7.5H20C19.7239 7.5 19.5 7.72386 19.5 8V13.9313Z" fill="black"/>
<path d="M18.1171 22.1572C18.5867 21.1575 18.157 19.9663 17.1572 19.4966C16.1575 19.027 14.9663 19.4567 14.4967 20.4565C14.027 21.4562 14.4567 22.6474 15.4565 23.1171C15.7064 23.2345 15.8139 23.5323 15.6965 23.7822C15.579 24.0322 15.2813 24.1396 15.0313 24.0222C13.5317 23.3177 12.8871 21.5309 13.5916 20.0313C14.296 18.5317 16.0828 17.8871 17.5824 18.5915C19.0821 19.296 19.7267 21.0828 19.0222 22.5824C18.6782 23.3147 18.0751 23.8436 17.3749 24.1103C17.1168 24.2086 16.8279 24.0791 16.7296 23.821C16.6314 23.563 16.7609 23.2741 17.0189 23.1758C17.4868 22.9976 17.8876 22.6457 18.1171 22.1572Z" fill="black"/>
</svg>
